<?xml version="1.0" encoding="UTF-8" standalone="no"?>
<svg
   xmlns:dc="http://purl.org/dc/elements/1.1/"
   xmlns:cc="http://creativecommons.org/ns#"
   xmlns:rdf="http://www.w3.org/1999/02/22-rdf-syntax-ns#"
   xmlns:svg="http://www.w3.org/2000/svg"
   xmlns="http://www.w3.org/2000/svg"
   version="1.1"
   x="0px"
   y="0px"
   width="365.578"
   height="412"
   viewBox="0 0 365.578 412"
   enable-background="new 0 0 512 512"
   xml:space="preserve"
   id="svg893"><metadata
   id="metadata899">
  <rdf:RDF>
    <cc:Work
   rdf:about="">
      <dc:format>image/svg+xml</dc:format>

      <dc:type
   rdf:resource="http://purl.org/dc/dcmitype/StillImage" />

      <dc:title></dc:title>

    </cc:Work>

  </rdf:RDF>

</metadata>

<defs
   id="defs897" />


<path
   id="light-bulb-18-icon"
   d="m 218.989,331.263 h -72.511 c -5.082,0 -9.201,4.12 -9.201,9.203 0,5.082 4.119,9.201 9.201,9.201 h 72.511 c 5.083,0 9.202,-4.119 9.202,-9.201 0,-5.083 -4.119,-9.203 -9.202,-9.203 z m -1.654,30.637 h -69.201 c -5.082,0 -9.201,4.121 -9.201,9.202 0,5.083 4.119,9.202 9.201,9.202 h 69.201 c 5.082,0 9.201,-4.119 9.201,-9.202 0,-5.081 -4.119,-9.202 -9.201,-9.202 z m -68.726,30.211 C 166.524,408.673 168.369,412 175.52,412 h 13.774 c 6.99,0 8.714,-3.084 27.564,-19.889 z M 287.488,171.629 c 0,62.305 -53.581,97.22 -53.581,146.388 h -24.4 c 0.021,-60.599 53.142,-92.516 53.142,-146.388 0,-100.84 -159.828,-100.998 -159.828,0 0,53.823 52.2,84.366 53.409,146.388 h -24.668 c 0,-49.168 -53.581,-84.083 -53.581,-146.388 -10e-4,-133.904 209.507,-134.04 209.507,0 z"
   style="fill:#000000;fill-opacity:1" />


</svg>
