<?xml version="1.0" encoding="UTF-8" standalone="no"?>
<svg
   xmlns:dc="http://purl.org/dc/elements/1.1/"
   xmlns:cc="http://creativecommons.org/ns#"
   xmlns:rdf="http://www.w3.org/1999/02/22-rdf-syntax-ns#"
   xmlns:svg="http://www.w3.org/2000/svg"
   xmlns="http://www.w3.org/2000/svg"
   id="svg893"
   xml:space="preserve"
   enable-background="new 0 0 512 512"
   viewBox="0 0 365.578 412"
   height="412"
   width="365.578"
   y="0px"
   x="0px"
   version="1.1"><metadata
   id="metadata899">
  <rdf:RDF>
    <cc:Work
       rdf:about="">
      <dc:format>image/svg+xml</dc:format>
      <dc:type
         rdf:resource="http://purl.org/dc/dcmitype/StillImage" />
      <dc:title></dc:title>
    </cc:Work>
  </rdf:RDF>
</metadata>
<defs
   id="defs897" />

<path
   id="path947"
   d="m 121.19583,221.18759 c -21.476304,-2.641 -36.467804,-15.35021 -38.389384,-36.03985 -3.18259,-34.26687 30.692184,-77.44879 75.661454,-96.449491 37.04181,-15.65114 70.05705,-10.01327 82.32489,11.612421"
   style="fill:#f4ff76;fill-opacity:1;stroke-width:3.44147" />
<path
   style="fill:#000000;fill-opacity:1"
   d="m 218.989,331.263 h -72.511 c -5.082,0 -9.201,4.12 -9.201,9.203 0,5.082 4.119,9.201 9.201,9.201 h 72.511 c 5.083,0 9.202,-4.119 9.202,-9.201 0,-5.083 -4.119,-9.203 -9.202,-9.203 z m -1.654,30.637 h -69.201 c -5.082,0 -9.201,4.121 -9.201,9.202 0,5.083 4.119,9.202 9.201,9.202 h 69.201 c 5.082,0 9.201,-4.119 9.201,-9.202 0,-5.081 -4.119,-9.202 -9.201,-9.202 z m -68.726,30.211 C 166.524,408.673 168.369,412 175.52,412 h 13.774 c 6.99,0 8.714,-3.084 27.564,-19.889 z M 287.488,171.629 c 0,62.305 -53.581,97.22 -53.581,146.388 h -24.4 c 0.021,-60.599 53.142,-92.516 53.142,-146.388 0,-100.84 -159.828,-100.998 -159.828,0 0,53.823 52.2,84.366 53.409,146.388 h -24.668 c 0,-49.168 -53.581,-84.083 -53.581,-146.388 -10e-4,-133.904 209.507,-134.04 209.507,0 z M 195.992,45.112 H 170.929 V 0 h 25.063 z M 127.665,53.223 105.609,12.12 83.525,23.97 105.58,65.073 Z M 74.133,94.409 34.032,65.67 19.433,86.042 59.533,114.78 Z M 69.967,246.9 59.689,224.043 14.573,244.326 24.849,267.183 Z M 51.127,155.555 H 0 v 25.062 h 51.127 z"
   id="light-bulb-18-icon" />

<rect
   transform="rotate(-50.972332)"
   y="228.98811"
   x="-164.22391"
   height="24.328615"
   width="304.06714"
   id="rect943"
   style="fill:#000000;fill-opacity:1;stroke-width:3.77953" />
</svg>
